<svg width="180" height="54" viewBox="0 0 180 54" fill="none" xmlns="http://www.w3.org/2000/svg">
<path d="M48.2136 34.312C45.1256 34.312 42.7016 33.536 40.9416 31.984C39.1816 30.432 38.3016 28.304 38.3016 25.6C38.3016 22.896 39.1736 20.768 40.9176 19.216C42.6616 17.648 45.0536 16.864 48.0936 16.864C50.4136 16.864 52.4056 17.296 54.0696 18.16L54.1176 22.288H53.9256C53.1096 19.344 51.2456 17.872 48.3336 17.872C46.4456 17.872 44.9496 18.56 43.8456 19.936C42.7576 21.296 42.2136 23.16 42.2136 25.528C42.2136 27.896 42.7336 29.776 43.7736 31.168C44.8296 32.56 46.2536 33.28 48.0456 33.328C49.9016 33.328 51.3176 32.864 52.2936 31.936C53.2856 30.976 53.9736 29.328 54.3576 26.992H54.5496L54.7896 31.12C53.4936 33.264 51.3016 34.328 48.2136 34.312ZM78.1001 33.76H78.3161V34H70.6601V33.76H70.8761C71.2281 33.76 71.4841 33.656 71.6441 33.448C71.8201 33.224 71.9081 33.016 71.9081 32.824C71.9081 32.632 71.8681 32.44 71.7881 32.248L70.6121 29.296H64.9961L63.7481 32.248C63.6681 32.456 63.6281 32.656 63.6281 32.848C63.6281 33.024 63.7161 33.224 63.8921 33.448C64.0681 33.656 64.3321 33.76 64.6841 33.76H64.8761V34H59.7401V33.76H59.9561C60.3241 33.76 60.6921 33.648 61.0601 33.424C61.4281 33.2 61.7321 32.864 61.9721 32.416L67.5161 19.864C68.2681 18.28 68.6681 17.232 68.7161 16.72H68.9321L76.0601 32.368C76.3001 32.832 76.6041 33.184 76.9721 33.424C77.3401 33.648 77.7161 33.76 78.1001 33.76ZM65.4041 28.288H70.2041L67.8761 22.384L65.4041 28.288ZM83.2078 31.768C83.2078 30.616 83.4558 29.632 83.9518 28.816H84.1678C84.1518 28.944 84.1438 29.072 84.1438 29.2C84.1438 30.304 84.5358 31.272 85.3198 32.104C86.1198 32.92 87.2078 33.328 88.5838 33.328C89.6558 33.328 90.4878 33.072 91.0798 32.56C91.6878 32.048 91.9918 31.4 91.9918 30.616C91.9918 30.152 91.8398 29.736 91.5358 29.368C91.2478 29 90.7598 28.592 90.0718 28.144L85.8958 25.384C84.3438 24.344 83.5678 23.064 83.5678 21.544C83.5678 21.384 83.5838 21.224 83.6158 21.064C83.7118 19.8 84.1998 18.784 85.0798 18.016C85.9758 17.248 87.1678 16.864 88.6558 16.864C89.5358 16.864 90.6238 16.944 91.9198 17.104H93.4318L93.1198 20.632H92.8798C92.8798 19.8 92.5678 19.136 91.9438 18.64C91.3358 18.128 90.5198 17.872 89.4958 17.872C88.2478 17.872 87.3438 18.256 86.7838 19.024C86.4958 19.392 86.3518 19.76 86.3518 20.128C86.3518 20.496 86.4238 20.808 86.5678 21.064C86.7918 21.48 87.2798 21.928 88.0318 22.408L92.6158 25.384C94.0558 26.328 94.7758 27.56 94.7758 29.08C94.7758 30.776 94.1918 32.08 93.0238 32.992C91.8718 33.888 90.3358 34.336 88.4158 34.336C87.3278 34.336 86.3198 34.208 85.3918 33.952C84.4798 33.68 83.8078 33.32 83.3758 32.872C83.2638 32.568 83.2078 32.2 83.2078 31.768ZM112.878 33.76C113.294 33.76 113.614 33.656 113.838 33.448C114.206 33.08 114.398 32.688 114.414 32.272V26.152H106.638V32.248C106.638 32.664 106.79 33.024 107.094 33.328C107.398 33.616 107.758 33.76 108.174 33.76H108.462L108.486 34H101.19V33.76H101.502C101.918 33.76 102.27 33.616 102.558 33.328C102.862 33.024 103.022 32.664 103.038 32.248V18.952C103.022 18.536 102.862 18.184 102.558 17.896C102.27 17.592 101.918 17.44 101.502 17.44H101.19V17.2H108.486L108.462 17.44H108.174C107.758 17.44 107.398 17.592 107.094 17.896C106.79 18.184 106.638 18.536 106.638 18.952V25.12H114.414V18.952C114.398 18.536 114.238 18.184 113.934 17.896C113.646 17.592 113.294 17.44 112.878 17.44H112.566V17.2H119.862V17.44H119.55C119.134 17.44 118.774 17.592 118.47 17.896C118.166 18.184 118.014 18.536 118.014 18.952V32.248C118.014 32.664 118.166 33.024 118.47 33.328C118.774 33.616 119.134 33.76 119.55 33.76H119.862V34H112.566V33.76H112.878ZM135.59 33.76C135.926 33.76 136.198 33.6 136.406 33.28C136.502 33.104 136.55 32.936 136.55 32.776C136.55 32.616 136.502 32.456 136.406 32.296L133.046 27.064L129.518 32.272C129.422 32.432 129.374 32.6 129.374 32.776C129.374 32.936 129.422 33.096 129.518 33.256C129.742 33.592 130.022 33.76 130.358 33.76H130.67V34H124.742V33.76H125.078C125.974 33.76 126.766 33.312 127.454 32.416L132.182 25.72L127.742 18.856C127.47 18.456 127.118 18.12 126.686 17.848C126.254 17.576 125.798 17.44 125.318 17.44H124.982V17.2H133.142V17.44H132.83C132.494 17.44 132.222 17.6 132.014 17.92C131.918 18.096 131.87 18.272 131.87 18.448C131.87 18.608 131.91 18.76 131.99 18.904L134.99 23.536L137.942 18.928C138.038 18.768 138.086 18.608 138.086 18.448C138.086 18.272 138.03 18.104 137.918 17.944C137.71 17.608 137.438 17.44 137.102 17.44H136.79V17.2H142.694V17.44H142.358C141.878 17.44 141.43 17.576 141.014 17.848C140.598 18.104 140.246 18.432 139.958 18.832L135.878 24.904L140.702 32.368C140.974 32.768 141.326 33.104 141.758 33.376C142.206 33.632 142.662 33.76 143.126 33.76H143.462V34H135.278V33.76H135.59Z" fill="#66FCF1"/>
<g clip-path="url(#clip0_51:41)">
<path d="M85.4278 13H93.9489C94.062 13.0015 94.1719 12.9625 94.2588 12.89C94.3456 12.8175 94.4036 12.7163 94.4223 12.6047L95.3691 6.92394C95.3853 6.83434 95.3754 6.74196 95.3404 6.65787C95.3055 6.57377 95.2471 6.50154 95.1721 6.44983C95.0972 6.39811 95.0089 6.36911 94.9179 6.3663C94.8269 6.36349 94.737 6.38699 94.659 6.43398L91.802 8.06955L90.1215 4.2824C90.0844 4.1984 90.0238 4.12698 89.9469 4.07684C89.87 4.0267 89.7801 4 89.6883 4C89.5965 4 89.5067 4.0267 89.4298 4.07684C89.3529 4.12698 89.2922 4.1984 89.2552 4.2824L87.5746 8.06955L84.7177 6.43398C84.6397 6.38699 84.5498 6.36349 84.4588 6.3663C84.3678 6.36911 84.2795 6.39811 84.2045 6.44983C84.1296 6.50154 84.0711 6.57377 84.0362 6.65787C84.0013 6.74196 83.9913 6.83434 84.0076 6.92394L84.9544 12.6047C84.973 12.7163 85.031 12.8175 85.1179 12.89C85.2047 12.9625 85.3147 13.0015 85.4278 13ZM87.5581 9.15126C87.6154 9.18377 87.679 9.20393 87.7446 9.21045C87.8102 9.21697 87.8765 9.20971 87.9391 9.18913C88.0023 9.16862 88.0604 9.13505 88.1098 9.0906C88.1591 9.04615 88.1986 8.99182 88.2255 8.93113L89.6883 5.64341L91.1487 8.93113C91.1757 8.99182 91.2152 9.04615 91.2645 9.0906C91.3138 9.13505 91.372 9.16862 91.4351 9.18913C91.4981 9.21006 91.5648 9.2175 91.6309 9.21097C91.697 9.20445 91.7609 9.1841 91.8186 9.15126L94.266 7.75238L93.5489 12.0532H85.8278L85.1177 7.75238L87.5581 9.15126Z" fill="#66FCF1"/>
</g>
<line x1="39" y1="12.6738" x2="79" y2="12.6738" stroke="#66FCF1" stroke-width="0.652318"/>
<line x1="101" y1="12.6851" x2="141" y2="12.6851" stroke="#66FCF1" stroke-width="0.629814"/>
<defs>
<clipPath id="clip0_51:41">
<rect width="11.3766" height="9" fill="white" transform="translate(84 4)"/>
</clipPath>
</defs>
</svg>
